<svg width="36" height="36" viewBox="0 0 36 36" version="1.1" xmlns="http://www.w3.org/2000/svg" xmlns:xlink="http://www.w3.org/1999/xlink">
<title>006-arrow-of-small-pixels-or-squares-and-double-line-pointing-to-left-direction</title>
<desc>Created using Figma</desc>
<g id="Canvas" transform="translate(-2137 -646)">
<g id="006-arrow-of-small-pixels-or-squares-and-double-line-pointing-to-left-direction">
<g id="Group">
<g id="Vector">
<use xlink:href="#path0_fill" transform="matrix(-1.38778e-17 -1 1 -1.38778e-17 2137 682)" fill="#FFFFFF"/>
</g>
</g>
</g>
</g>
<defs>
<path id="path0_fill" d="M 5.14286 20.5714L 0 20.5714L 0 15.4286L 5.14286 15.4286L 5.14286 20.5714ZM 10.2857 10.2857L 5.14286 10.2857L 5.14286 15.4286L 10.2857 15.4286L 10.2857 10.2857ZM 15.4286 5.14286L 10.2857 5.14286L 10.2857 10.2857L 15.4286 10.2857L 15.4286 5.14286ZM 20.5714 0L 15.4286 0L 15.4286 5.14286L 20.5714 5.14286L 20.5714 0ZM 10.2857 20.5714L 5.14286 20.5714L 5.14286 25.7143L 10.2857 25.7143L 10.2857 20.5714ZM 15.4286 25.7143L 10.2857 25.7143L 10.2857 30.8571L 15.4286 30.8571L 15.4286 25.7143ZM 20.5714 30.8571L 15.4286 30.8571L 15.4286 36L 20.5714 36L 20.5714 30.8571ZM 20.5714 15.4286L 15.4286 15.4286L 15.4286 20.5714L 20.5714 20.5714L 20.5714 15.4286ZM 25.7143 10.2857L 20.5714 10.2857L 20.5714 15.4286L 25.7143 15.4286L 25.7143 10.2857ZM 30.8571 5.14286L 25.7143 5.14286L 25.7143 10.2857L 30.8571 10.2857L 30.8571 5.14286ZM 36 0L 30.8571 0L 30.8571 5.14286L 36 5.14286L 36 0ZM 25.7143 20.5714L 20.5714 20.5714L 20.5714 25.7143L 25.7143 25.7143L 25.7143 20.5714ZM 30.8571 25.7143L 25.7143 25.7143L 25.7143 30.8571L 30.8571 30.8571L 30.8571 25.7143ZM 36 30.8571L 30.8571 30.8571L 30.8571 36L 36 36L 36 30.8571Z"/>
</defs>
</svg>
